<?xml version="1.0" standalone="no"?>
<!DOCTYPE svg PUBLIC "-//W3C//DTD SVG 20010904//EN"
 "http://www.w3.org/TR/2001/REC-SVG-20010904/DTD/svg10.dtd">
<svg version="1.0" xmlns="http://www.w3.org/2000/svg"
 width="512.000000pt" height="512.000000pt" viewBox="0 0 512.000000 512.000000"
 preserveAspectRatio="xMidYMid meet">
<metadata>
Created by potrace 1.14, written by Peter Selinger 2001-2017
</metadata>
<g transform="translate(0.000000,512.000000) scale(0.100000,-0.100000)"
fill="#000000" stroke="none">
<path d="M0 2560 l0 -2560 2560 0 2560 0 0 2560 0 2560 -2560 0 -2560 0 0
-2560z m2527 2328 c17 -18 47 -65 67 -105 30 -60 41 -73 71 -83 35 -11 35 -12
35 -69 0 -45 -5 -64 -25 -91 -24 -32 -24 -35 -8 -53 15 -16 26 -18 71 -12 l52
6 105 -75 104 -76 71 8 c69 8 71 8 76 -15 4 -13 7 -23 8 -23 0 0 15 4 33 9 26
8 34 6 50 -12 36 -41 45 -62 12 -26 -30 32 -37 36 -63 28 -34 -9 -46 -5 -46
18 0 14 -10 15 -73 10 l-74 -6 -102 75 -102 75 -52 -6 c-47 -6 -54 -4 -76 19
l-24 25 27 31 c21 26 26 42 26 86 0 52 -1 54 -35 68 -27 12 -41 29 -69 84 -44
88 -81 132 -111 132 -18 0 -24 -7 -29 -37 -3 -21 -15 -53 -26 -70 l-20 -33
-98 0 c-88 0 -101 -2 -118 -21 -17 -20 -83 -54 -89 -47 -1 2 -7 13 -14 25 -16
32 -13 42 5 11 16 -31 30 -29 84 11 30 22 48 27 129 31 87 5 95 7 113 31 11
14 22 44 25 67 5 37 9 42 32 42 17 0 38 -12 58 -32z m-499 -83 c2 -2 -36 -3
-85 -2 -63 1 -77 3 -48 7 35 6 124 2 133 -5z m-183 -26 c-5 -16 2 -30 27 -56
l33 -34 -33 -27 c-20 -17 -38 -44 -47 -72 -7 -25 -14 -37 -14 -27 -1 30 25 83
52 104 l26 20 -30 36 c-21 26 -28 43 -24 57 3 11 9 20 11 20 3 0 2 -9 -1 -21z
m220 10 c11 -16 1 -19 -13 -3 -7 8 -8 14 -3 14 5 0 13 -5 16 -11z m-57 -198
c2 -12 -2 -29 -9 -37 -11 -14 -14 -12 -27 11 -10 21 -11 29 -1 41 16 20 33 13
37 -15z m-204 -90 c-4 -17 -9 -30 -11 -27 -3 2 -2 19 2 36 9 41 17 33 9 -9z
m-17 -63 c-3 -8 -6 -5 -6 6 -1 11 2 17 5 13 3 -3 4 -12 1 -19z m590 6 c3 -8 0
-27 -7 -42 l-12 -27 -15 28 c-8 16 -12 35 -9 43 7 19 35 18 43 -2z m-612 -54
c-18 -19 -211 -120 -230 -120 -5 0 41 26 104 57 62 31 118 65 124 74 6 10 13
16 16 14 2 -3 -4 -14 -14 -25z m1171 -104 c6 -17 -12 -56 -26 -56 -12 0 -24
46 -15 59 9 16 35 13 41 -3z m-1056 -34 c0 -10 -6 -27 -14 -37 -13 -18 -14
-18 -25 4 -16 29 -7 51 19 51 13 0 20 -7 20 -18z m-405 -2 c-11 -5 -27 -9 -35
-9 -9 0 -8 4 5 9 11 5 27 9 35 9 9 0 8 -4 -5 -9z m1072 -16 c15 -9 52 -14 113
-14 l90 0 0 -38 c0 -21 5 -43 12 -50 8 -8 8 -12 1 -12 -14 0 -23 24 -23 61 l0
29 -85 0 c-56 0 -93 5 -108 14 -15 10 -73 16 -187 21 l-165 6 -62 -69 c-57
-64 -67 -71 -112 -77 -54 -7 -61 -17 -61 -87 0 -31 -4 -38 -19 -38 -13 0 -21
9 -26 30 -6 25 -30 50 -48 50 -3 0 -8 -11 -11 -24 -6 -23 -9 -24 -68 -19 -84
8 -89 15 -8 12 60 -3 65 -1 68 19 4 25 11 27 46 11 14 -7 26 -23 30 -40 8 -42
26 -36 26 9 0 69 7 79 60 86 44 6 55 14 117 77 l68 71 165 -7 c114 -5 172 -11
187 -21z m861 -8 c-1 -1 -21 -13 -43 -28 -48 -30 -121 -68 -132 -68 -4 0 28
20 72 45 108 62 110 65 40 67 l-60 1 55 6 c40 4 57 2 63 -7 5 -8 7 -14 5 -16z
m-2003 5 c-11 -5 -36 -11 -55 -14 -35 -6 -34 -6 5 8 43 14 84 19 50 6z m1511
-19 c-10 -2 -22 0 -28 6 -6 6 0 7 19 4 21 -5 23 -7 9 -10z m-1676 -41 c-5 -11
-10 -27 -10 -37 0 -9 -21 -41 -46 -71 l-46 -54 16 -33 c9 -19 16 -40 15 -48 0
-7 -5 1 -11 17 -6 17 -17 37 -24 45 -11 13 -6 24 35 70 31 35 50 68 55 93 4
20 11 37 17 37 6 0 6 -7 -1 -19z m1968 -48 c-13 -3 -18 -15 -18 -44 l0 -39
-132 0 -133 1 -75 39 c-41 21 -72 39 -67 40 4 0 39 -16 77 -35 68 -34 72 -35
195 -35 l125 0 0 40 c0 35 3 40 23 39 16 -1 18 -2 5 -6z m-1523 -79 c17 -8 21
-12 10 -8 -53 16 -95 16 -120 0 -23 -15 -25 -22 -25 -91 0 -68 2 -75 19 -75
33 0 34 -19 2 -57 -20 -24 -31 -49 -31 -68 0 -18 -14 -49 -35 -79 -19 -27 -37
-64 -41 -82 l-6 -33 -58 6 -57 6 -7 -68 c-4 -38 -3 -72 2 -77 4 -4 28 -15 53
-23 25 -8 31 -13 14 -9 -16 2 -43 10 -58 16 l-29 11 7 71 c4 39 10 75 13 80 2
5 29 6 58 3 52 -5 53 -5 59 24 4 16 22 52 41 80 19 28 34 62 34 76 0 14 13 45
29 68 29 43 29 44 8 47 -20 3 -22 10 -25 83 -3 72 -1 82 19 98 26 21 83 22
124 1z m-241 -10 c20 -8 21 -34 2 -59 -14 -19 -15 -19 -26 7 -7 15 -10 34 -7
42 7 18 9 18 31 10z m-295 -210 c-33 -54 -46 -61 -84 -43 -15 7 -12 8 12 3 30
-5 34 -2 62 43 17 26 31 57 32 68 1 18 2 18 6 2 3 -10 -10 -43 -28 -73z m-144
-23 c28 -6 14 -8 -50 -4 -49 2 -112 0 -140 -4 l-50 -8 -17 -60 c-19 -70 -24
-53 -5 20 13 49 14 50 58 56 67 9 159 9 204 0z m-278 -163 c-3 -8 -6 -5 -6 6
-1 11 2 17 5 13 3 -3 4 -12 1 -19z m-10 -40 c-3 -8 -6 -5 -6 6 -1 11 2 17 5
13 3 -3 4 -12 1 -19z m-10 -40 c-3 -8 -6 -5 -6 6 -1 11 2 17 5 13 3 -3 4 -12
1 -19z m1360 -493 c95 -280 172 -517 171 -525 0 -12 -1 -11 -5 1 -3 14 -23 17
-124 20 -85 3 -122 8 -128 17 -4 7 -20 57 -36 111 l-28 99 -51 6 c-28 3 -107
6 -176 6 l-126 0 -37 -113 -37 -113 -123 4 c-67 2 -123 5 -125 7 -2 2 328 867
375 983 4 9 38 12 141 10 l137 -3 172 -510z m777 163 c-4 -209 -11 -358 -19
-399 -25 -123 -83 -207 -180 -257 -42 -22 -66 -26 -150 -30 -69 -2 -112 1
-139 11 l-40 14 3 104 c1 57 4 105 5 106 1 2 20 -6 41 -17 88 -45 180 -16 218
68 19 44 21 71 28 387 4 187 7 341 8 343 1 1 53 2 117 2 l115 0 -7 -332z m444
87 l-6 -235 32 53 c37 61 252 375 270 395 9 9 48 12 148 10 l136 -3 -178 -234
-179 -235 32 -45 c17 -25 100 -144 184 -264 84 -120 153 -221 153 -224 0 -12
-285 8 -297 20 -13 14 -244 371 -280 432 l-23 40 0 -181 c0 -100 -3 -209 -6
-243 l-7 -61 -37 0 c-20 0 -72 3 -114 7 l-77 6 6 306 c3 168 8 393 11 499 l6
192 116 0 115 0 -5 -235z m-2591 203 c-3 -8 -6 -5 -6 6 -1 11 2 17 5 13 3 -3
4 -12 1 -19z m253 -18 c12 -8 12 -13 -2 -42 l-16 -33 -12 27 c-12 26 -8 58 7
58 4 0 15 -4 23 -10z m-263 -22 c-3 -8 -6 -5 -6 6 -1 11 2 17 5 13 3 -3 4 -12
1 -19z m-26 -44 c-12 -15 -21 -31 -21 -36 0 -5 22 -41 48 -81 138 -204 152
-241 152 -398 0 -48 5 -91 10 -94 6 -3 10 -34 10 -68 0 -60 2 -66 55 -139 30
-42 55 -81 55 -87 0 -7 -26 26 -57 71 -64 93 -64 94 -83 351 -8 121 -11 131
-46 195 -21 37 -66 109 -101 161 l-64 94 27 28 c35 36 42 37 15 3z m819 -64
c18 -12 2 -12 -25 0 -13 6 -15 9 -5 9 8 0 22 -4 30 -9z m-373 -242 c12 -17 11
-80 -2 -85 -16 -5 -45 70 -33 85 6 6 14 12 18 12 4 0 12 -6 17 -12z m266 -22
c-3 -43 -20 -54 -34 -23 -14 32 -5 60 18 55 13 -3 17 -12 16 -32z m-315 -338
c2 -13 -3 -30 -11 -36 -21 -18 -46 31 -27 53 18 21 34 14 38 -17z m705 -40
c-6 -10 -80 -10 -86 0 -3 4 17 7 43 7 27 0 46 -3 43 -7z m-759 -261 c21 -8 21
-63 1 -110 -8 -20 -15 -60 -15 -89 0 -46 3 -55 23 -63 28 -13 35 -81 13 -127
-9 -17 -16 -48 -16 -69 0 -30 6 -42 30 -59 54 -38 60 -63 60 -238 0 -100 -4
-162 -11 -169 -7 -7 -9 -40 -6 -89 8 -122 16 -154 38 -154 16 0 19 -8 19 -50
0 -39 4 -52 20 -60 11 -6 22 -21 26 -34 3 -13 17 -33 30 -45 29 -26 33 -86 7
-134 -9 -18 -16 -41 -15 -52 l2 -20 -9 20 c-6 14 -3 29 10 51 26 43 25 109 -1
127 -11 8 -25 28 -31 44 -5 17 -19 33 -30 36 -16 4 -19 14 -19 55 0 40 -4 51
-19 55 -21 5 -30 42 -38 161 -3 49 -1 82 6 89 7 7 11 70 11 170 0 141 -2 163
-20 191 -10 18 -31 38 -45 46 -22 12 -25 20 -25 64 0 29 7 59 15 70 8 11 15
39 15 63 0 37 -4 45 -25 53 -23 9 -25 15 -25 65 0 31 7 72 15 92 21 51 19 95
-5 111 -11 7 -20 20 -19 30 0 14 2 13 9 -4 4 -12 15 -24 24 -27z m1139 12
c-18 -32 -87 -89 -107 -89 -6 0 3 9 20 19 17 10 46 37 65 60 41 49 46 51 22
10z m-699 -68 c68 -11 106 -53 106 -115 0 -33 -7 -52 -26 -75 -14 -17 -21 -31
-15 -31 17 0 51 -62 51 -93 0 -42 -25 -82 -64 -101 -25 -12 -63 -16 -145 -16
l-111 0 0 220 0 220 78 -1 c42 0 99 -4 126 -8z m240 -7 c9 -8 16 -20 16 -25 0
-51 -71 -69 -92 -24 -21 46 40 86 76 49z m1774 4 c7 -7 12 -21 12 -33 0 -44
-60 -63 -80 -26 -14 27 -13 37 6 55 18 19 45 21 62 4z m-1464 -32 c-18 -8 -35
-19 -38 -25 -9 -14 -86 -14 -86 0 0 6 -14 9 -32 7 -22 -2 -36 -10 -44 -27 -7
-13 -24 -33 -38 -45 -14 -12 -27 -34 -29 -51 -4 -29 -4 -28 -5 5 -2 29 4 39
28 55 16 11 30 26 30 34 0 31 79 57 95 31 11 -17 66 -11 92 10 14 11 33 20 42
20 9 -1 2 -7 -15 -14z m1066 -51 c0 -43 1 -45 30 -45 28 0 30 -3 30 -35 0 -32
-2 -35 -30 -35 l-30 0 0 -115 0 -115 -40 0 -40 0 0 115 0 115 -25 0 c-22 0
-25 4 -25 35 0 31 3 35 25 35 22 0 25 4 25 38 0 47 4 52 47 52 33 0 33 -1 33
-45z m-1370 -195 l0 -150 -40 0 -40 0 0 150 0 150 40 0 40 0 0 -150z m301 127
c122 -81 72 -268 -75 -284 -91 -11 -176 63 -176 153 0 47 40 115 80 136 50 26
128 24 171 -5z m189 7 c0 -15 2 -15 25 0 36 23 104 21 131 -5 l23 -21 27 21
c37 29 112 29 143 0 34 -32 41 -61 41 -175 l0 -104 -40 0 -40 0 0 99 c0 108
-10 131 -55 131 -45 0 -55 -23 -55 -131 l0 -99 -40 0 -40 0 0 99 c0 108 -10
131 -55 131 -45 0 -55 -23 -55 -131 l0 -99 -40 0 -40 0 0 150 0 150 35 0 c26
0 35 -4 35 -16z m661 0 c33 -17 68 -81 69 -125 l0 -27 -104 -4 c-58 -2 -108
-7 -112 -10 -4 -4 1 -19 10 -33 13 -20 24 -25 60 -25 30 0 48 6 61 20 11 13
31 20 52 20 31 0 34 -2 27 -22 -23 -77 -130 -111 -212 -69 -49 25 -75 71 -75
135 -1 96 55 156 146 156 26 0 62 -7 78 -16z m509 -24 c0 -39 -1 -40 -35 -40
-61 0 -75 -25 -75 -130 l0 -90 -40 0 -40 0 0 145 0 145 34 0 c19 0 38 -5 41
-10 4 -7 14 -5 28 5 12 8 36 15 54 15 32 0 33 -1 33 -40z m120 -110 l0 -150
-40 0 -40 0 0 150 0 150 40 0 40 0 0 -150z m284 131 c32 -21 55 -56 56 -83 0
-30 -64 -24 -84 7 -12 19 -25 25 -51 25 -49 0 -75 -29 -75 -82 0 -78 75 -118
118 -63 27 34 92 36 92 4 0 -12 -15 -36 -33 -54 -37 -37 -87 -51 -141 -41
-123 23 -158 194 -57 279 27 22 42 27 89 27 39 0 66 -6 86 -19z m-2017 -297
c-3 -3 -12 -4 -19 -1 -8 3 -5 6 6 6 11 1 17 -2 13 -5z m133 -76 c39 -1 41 -2
11 -5 -52 -7 -76 3 -106 44 l-28 38 39 -37 c33 -31 48 -38 84 -40z m109 -14
c22 -9 43 -24 46 -35 4 -12 16 -19 30 -19 13 0 30 -3 39 -6 13 -5 16 2 16 35
0 30 4 41 15 41 12 0 15 -18 15 -106 0 -95 -2 -105 -17 -103 -10 2 -28 0 -39
-4 -12 -4 -33 -3 -47 2 -40 15 -53 86 -22 121 20 22 2 48 -48 70 -52 23 -42
26 12 4z m979 -11 c30 -30 14 -47 -18 -18 -27 24 -65 16 -65 -14 0 -19 9 -27
45 -40 33 -12 47 -24 55 -45 8 -25 6 -31 -19 -53 -35 -30 -80 -26 -110 10 -17
21 -17 22 -1 26 10 1 22 -4 27 -13 19 -33 88 -8 75 28 -3 7 -18 17 -34 20 -49
12 -73 34 -73 66 0 58 72 79 118 33z m-1508 12 c0 -2 16 -47 35 -100 27 -75
31 -95 19 -95 -8 0 -19 11 -24 25 -8 21 -16 25 -50 25 -33 0 -42 -4 -52 -25
-6 -14 -17 -25 -25 -25 -17 0 -17 -4 12 76 44 120 47 124 66 124 11 0 19 -2
19 -5z m120 -35 c0 -16 7 -20 30 -20 23 0 30 4 30 20 0 11 7 20 15 20 8 0 15
-9 15 -19 0 -11 6 -22 13 -25 10 -5 10 -7 0 -12 -8 -4 -13 -27 -13 -65 0 -46
-3 -59 -15 -59 -12 0 -15 13 -15 60 l0 60 -30 0 -30 0 0 -60 c0 -47 -3 -60
-15 -60 -12 0 -15 13 -15 59 0 38 -5 61 -12 65 -10 5 -10 7 0 12 6 3 12 14 12
25 0 10 7 19 15 19 8 0 15 -9 15 -20z m1720 0 c0 -11 7 -20 15 -20 8 0 15 -4
15 -10 0 -5 -7 -10 -15 -10 -12 0 -15 -13 -15 -60 0 -33 -4 -60 -10 -60 -6 0
-10 27 -10 60 0 47 -3 60 -15 60 -8 0 -15 5 -15 10 0 6 7 10 15 10 8 0 15 9
15 20 0 11 5 20 10 20 6 0 10 -9 10 -20z m-1493 -28 c15 -9 34 -58 26 -66 -4
-3 -28 -6 -55 -6 -49 0 -57 -7 -36 -28 15 -15 51 -15 66 0 6 6 15 8 19 4 11
-11 -35 -46 -59 -46 -30 0 -68 45 -68 80 0 52 64 90 107 62z m162 -6 c7 -8 15
-40 18 -70 5 -48 3 -56 -11 -56 -12 0 -16 10 -16 43 0 97 -62 104 -68 8 -2
-36 -7 -51 -18 -51 -11 0 -14 15 -14 68 l0 68 49 2 c32 1 53 -3 60 -12z m308
6 c15 -9 34 -58 26 -66 -4 -3 -28 -6 -55 -6 -49 0 -57 -7 -36 -28 15 -15 51
-15 66 0 6 6 15 8 19 4 11 -11 -35 -46 -59 -46 -30 0 -68 45 -68 80 0 52 64
90 107 62z m162 -6 c7 -8 15 -40 18 -70 5 -48 3 -56 -11 -56 -12 0 -16 10 -16
43 0 97 -62 104 -68 8 -2 -36 -7 -51 -18 -51 -11 0 -14 15 -14 68 l0 68 49 2
c32 1 53 -3 60 -12z m153 -3 c10 -9 18 -20 18 -25 0 -13 -27 -9 -40 7 -18 22
-37 18 -56 -10 -14 -21 -15 -31 -6 -50 13 -28 59 -35 68 -10 6 15 34 21 34 8
-1 -28 -51 -56 -85 -47 -47 12 -64 86 -29 125 21 23 71 25 96 2z m134 9 c13
-8 34 -46 34 -61 0 -7 -23 -11 -55 -11 -56 0 -65 -6 -43 -28 15 -15 51 -15 66
0 6 6 15 8 19 4 11 -11 -35 -46 -59 -46 -10 0 -30 11 -43 25 -31 30 -33 77 -5
105 20 20 65 26 86 12z m314 -40 c22 -59 26 -59 45 -3 9 30 23 51 31 51 8 0
14 -2 14 -4 0 -11 -64 -172 -73 -183 -11 -15 -57 -17 -57 -3 0 6 9 10 19 10
31 0 33 28 6 94 -14 34 -25 68 -25 75 0 26 26 3 40 -37z m194 26 c15 -25 -1
-34 -24 -13 -19 17 -50 15 -50 -3 0 -5 18 -16 40 -25 32 -12 40 -20 40 -41 0
-35 -44 -54 -79 -34 -29 16 -39 38 -17 38 9 0 16 -4 16 -10 0 -5 11 -10 25
-10 35 0 31 24 -7 41 -36 15 -50 55 -26 70 20 14 70 6 82 -13z m218 5 c10 -9
18 -27 18 -40 0 -21 -4 -23 -51 -23 -43 0 -50 -3 -47 -17 4 -20 68 -32 68 -14
0 6 7 11 15 11 22 0 18 -17 -7 -34 -30 -21 -50 -20 -82 5 -31 24 -36 81 -9
111 20 22 70 23 95 1z m144 6 c8 -7 14 -7 19 1 9 14 58 13 73 -2 7 -7 12 -38
12 -70 0 -45 -3 -58 -15 -58 -12 0 -15 13 -15 55 0 40 -4 57 -15 61 -27 11
-45 -16 -45 -67 0 -37 -4 -49 -15 -49 -12 0 -15 13 -15 55 0 40 -4 57 -15 61
-27 11 -45 -16 -45 -67 0 -37 -4 -49 -15 -49 -12 0 -15 14 -15 69 l0 68 47 1
c26 1 52 -3 59 -9z m-1508 -363 c-29 -54 -85 -103 -124 -110 -93 -16 -94 -17
-94 -42 0 -13 -4 -24 -10 -24 -6 0 -10 -30 -10 -69 l0 -70 33 -4 c31 -4 31 -4
-5 -5 l-38 -2 0 80 c0 47 4 80 10 80 6 0 10 11 10 24 0 22 6 25 70 36 68 12
72 14 115 67 42 51 45 60 47 116 l2 62 3 -57 c3 -35 -1 -67 -9 -82z m-751
-126 c2 -8 -4 -24 -13 -35 -13 -17 -16 -18 -24 -5 -5 8 -10 25 -10 38 0 19 5
23 22 20 13 -2 24 -10 25 -18z m316 8 c4 -15 -13 -58 -23 -58 -12 0 -33 48
-26 59 10 15 43 14 49 -1z m327 -237 c0 -33 14 -41 70 -41 35 0 39 -3 50 -36
7 -19 18 -38 26 -41 8 -3 14 -16 14 -29 0 -20 11 -30 61 -54 34 -16 72 -39 85
-51 20 -19 31 -21 74 -16 36 4 69 1 115 -14 68 -21 70 -23 90 -114 4 -16 12
-34 18 -38 8 -6 7 -7 -3 -5 -9 3 -21 28 -28 59 -8 30 -18 59 -23 65 -14 17
-126 46 -149 39 -41 -13 -81 -8 -94 11 -8 10 -46 34 -85 53 -57 28 -71 39 -71
57 0 13 -6 27 -14 31 -7 4 -17 22 -23 38 -8 25 -16 30 -44 33 -69 5 -79 10
-79 42 0 24 -5 29 -27 33 -26 4 -26 4 5 6 29 1 32 -2 32 -28z m-281 -155 c17
-20 -6 -71 -26 -55 -7 6 -13 21 -13 34 0 35 19 46 39 21z m-417 -51 c18 -15
24 -25 15 -25 -8 0 -17 7 -21 15 -3 9 -16 20 -28 25 -13 5 -17 9 -9 9 7 1 26
-10 43 -24z m784 -10 c8 -20 -16 -77 -30 -72 -15 5 -30 51 -23 71 8 20 46 21
53 1z m-675 -65 c27 -44 35 -50 65 -50 19 0 34 -4 34 -8 0 -4 -16 -6 -36 -4
-29 4 -41 13 -67 53 -18 26 -41 50 -52 52 -18 4 -17 4 3 6 17 1 30 -11 53 -49z
m662 -27 c-7 -2 -21 -2 -30 0 -10 3 -4 5 12 5 17 0 24 -2 18 -5z m-206 -127
c30 -48 38 -55 45 -42 5 9 17 15 26 12 9 -2 29 -7 45 -10 20 -5 27 -12 26 -29
0 -22 0 -22 -9 -1 -10 26 -65 37 -81 17 -15 -17 -24 -11 -63 52 l-34 53 -111
7 c-80 5 -115 4 -126 -5 -17 -14 -68 -9 -71 8 -1 7 0 8 3 2 7 -14 48 -13 61 3
8 9 37 10 132 2 l121 -10 36 -59z m600 4 c2 -8 -4 -24 -13 -35 -13 -17 -16
-18 -24 -5 -5 8 -10 25 -10 38 0 19 5 23 22 20 13 -2 24 -10 25 -18z m161 -44
c-25 -18 -14 -142 14 -157 13 -7 16 -14 9 -27 -4 -9 -5 -26 0 -37 13 -34 10
-43 -21 -54 -16 -5 -30 -17 -30 -25 0 -12 -11 -16 -49 -16 -41 0 -53 4 -69 25
-11 14 -25 25 -31 25 -12 0 -35 39 -28 47 3 2 8 -5 12 -16 3 -12 15 -21 26
-21 10 0 19 -7 19 -15 0 -20 32 -35 74 -35 26 0 36 5 41 20 3 11 15 20 25 20
25 0 32 13 21 42 -5 14 -5 31 -1 38 6 9 3 18 -9 27 -27 18 -37 140 -14 165 9
10 19 15 22 12 3 -3 -2 -11 -11 -18z m-515 -68 c-2 -5 -26 -8 -54 -8 -27 0
-49 3 -49 8 0 4 24 7 54 7 30 0 52 -3 49 -7z m104 -8 c3 -10 2 -11 -4 -3 -4 6
-26 13 -48 16 -40 4 -40 4 4 3 30 -1 46 -6 48 -16z m48 -72 c17 -13 50 -25 80
-29 l50 -6 -46 -2 c-37 -1 -54 5 -87 29 -23 17 -42 38 -41 48 0 15 1 16 7 0 4
-9 20 -27 37 -40z m155 -48 c0 -5 -2 -10 -4 -10 -3 0 -8 5 -11 10 -3 6 -1 10
4 10 6 0 11 -4 11 -10z"/>
<path d="M1980 4596 c0 -9 5 -16 10 -16 6 0 10 4 10 9 0 6 -4 13 -10 16 -5 3
-10 -1 -10 -9z"/>
<path d="M2347 4444 c-8 -8 1 -24 14 -24 5 0 9 7 9 15 0 15 -12 20 -23 9z"/>
<path d="M2902 4281 c2 -7 7 -12 11 -12 12 1 9 15 -3 20 -7 2 -11 -2 -8 -8z"/>
<path d="M1840 4250 c0 -5 7 -10 15 -10 8 0 15 5 15 10 0 6 -7 10 -15 10 -8 0
-15 -4 -15 -10z"/>
<path d="M1425 4019 c-10 -15 3 -25 16 -12 7 7 7 13 1 17 -6 3 -14 1 -17 -5z"/>
<path d="M1686 3181 c-33 -97 -61 -182 -64 -188 -3 -10 25 -13 118 -13 114 0
121 1 115 19 -3 10 -28 94 -55 187 -28 92 -51 169 -53 170 -1 1 -29 -78 -61
-175z m71 -13 c-3 -8 -6 -5 -6 6 -1 11 2 17 5 13 3 -3 4 -12 1 -19z m-10 -50
c-3 -8 -6 -5 -6 6 -1 11 2 17 5 13 3 -3 4 -12 1 -19z m-11 -51 c-3 -14 -13
-28 -23 -31 -16 -6 -16 -6 0 12 9 10 17 27 17 37 0 10 3 16 6 12 4 -3 4 -17 0
-30z"/>
<path d="M920 3485 c0 -9 5 -15 11 -13 6 2 11 8 11 13 0 5 -5 11 -11 13 -6 2
-11 -4 -11 -13z"/>
<path d="M1080 3115 c0 -8 5 -15 10 -15 6 0 10 7 10 15 0 8 -4 15 -10 15 -5 0
-10 -7 -10 -15z"/>
<path d="M1346 3121 c-4 -5 -2 -12 3 -15 5 -4 12 -2 15 3 4 5 2 12 -3 15 -5 4
-12 2 -15 -3z"/>
<path d="M1026 2782 c-3 -6 -1 -14 5 -17 15 -10 25 3 12 16 -7 7 -13 7 -17 1z"/>
<path d="M1320 2285 l0 -55 59 0 c51 0 62 3 75 22 38 54 9 88 -75 88 l-59 0 0
-55z"/>
<path d="M1320 2105 l0 -55 56 0 c74 0 94 12 94 55 0 43 -20 55 -94 55 l-56 0
0 -55z"/>
<path d="M1843 2184 c-22 -22 -25 -32 -20 -67 4 -26 14 -49 27 -59 52 -42 130
-3 130 65 0 80 -82 116 -137 61z"/>
<path d="M2728 2209 c-10 -5 -22 -19 -28 -29 -10 -19 -7 -20 60 -20 74 0 83 7
50 40 -22 22 -55 25 -82 9z"/>
<path d="M2034 1775 c-23 -35 -6 -75 30 -75 41 0 60 54 30 84 -22 23 -41 20
-60 -9z"/>
<path d="M1411 1799 c-16 -46 -14 -49 19 -49 34 0 34 1 18 47 -15 41 -23 42
-37 2z"/>
<path d="M1732 1788 c-21 -21 -13 -28 28 -28 38 0 40 2 30 20 -12 22 -40 26
-58 8z"/>
<path d="M2202 1788 c-21 -21 -13 -28 28 -28 38 0 40 2 30 20 -12 22 -40 26
-58 8z"/>
<path d="M2652 1788 c-21 -21 -13 -28 28 -28 38 0 40 2 30 20 -12 22 -40 26
-58 8z"/>
<path d="M3372 1788 c-20 -20 -14 -28 23 -28 37 0 49 22 19 34 -22 8 -28 8
-42 -6z"/>
<path d="M1290 1320 c0 -5 7 -10 16 -10 8 0 12 5 9 10 -3 6 -10 10 -16 10 -5
0 -9 -4 -9 -10z"/>
<path d="M1610 1320 c0 -5 5 -10 10 -10 6 0 10 5 10 10 0 6 -4 10 -10 10 -5 0
-10 -4 -10 -10z"/>
<path d="M1665 929 c-10 -15 3 -25 16 -12 7 7 7 13 1 17 -6 3 -14 1 -17 -5z"/>
<path d="M2015 869 c-10 -15 1 -23 20 -15 9 3 13 10 10 16 -8 13 -22 13 -30
-1z"/>
<path d="M2400 660 c0 -5 5 -10 10 -10 6 0 10 5 10 10 0 6 -4 10 -10 10 -5 0
-10 -4 -10 -10z"/>
</g>
</svg>
